<svg width="100" height="60" viewBox="0 0 161 48" fill="none" xmlns="http://www.w3.org/2000/svg">
<path d="M45.5707 29.0803L46.8007 43.849C30.2766 46.6024 18.2515 34.4289 18.2515 34.4289C18.2515 34.4289 35.4849 40.4776 45.5707 29.0803ZM15.5974 9.87321L27.2087 1.37891C37.7534 14.9692 33.6821 31.9437 33.6821 31.9437C33.6821 31.9437 30.0739 13.3124 15.5974 9.87321ZM14.6799 46.6236L1.83295 40.352C7.81804 24.0055 23.9073 19.2086 23.9073 19.2086C23.9073 19.2086 10.2793 31.7956 14.6799 46.6236Z" fill="#4A4A4A"/>
<path d="M55.2037 35.4089H58.1941C60.1108 35.4089 60.8412 34.2785 60.8412 32.3C60.8412 29.6087 59.9406 29.1444 57.5355 29.1444C56.7447 29.1444 55.9763 29.2178 55.2037 29.2644V35.4089ZM55.2037 43.2541L56.3943 43.3204C57.513 43.3204 58.4587 43.3204 59.5606 42.9986C61.041 42.6091 61.2338 41.0666 61.2338 39.709C61.2338 37.0149 60.2248 36.2853 57.7635 36.2853H55.2037V43.2541ZM51.1142 43.4601C53.249 43.4601 53.2279 43.1355 53.2279 41.8936V30.6163C53.2279 29.3801 53.249 29.0513 51.1142 29.0513V28.2765C52.1514 28.2962 53.1801 28.2962 54.2144 28.3216C54.8533 28.3216 57.4722 28.2765 58.0703 28.2765C60.8595 28.2765 63.0365 28.5983 63.0365 32.1165C63.0365 34.3688 62.0064 35.3779 59.9406 35.7505V35.797C62.309 36.0736 63.4545 37.221 63.4545 39.7542C63.4545 41.4773 63.1083 42.7206 61.5603 43.5518C60.533 44.1276 58.6825 44.2024 57.5355 44.2391C56.4379 44.2222 55.3177 44.2222 54.2144 44.2024C53.1801 44.2222 52.1514 44.2222 51.1142 44.2391V43.4601ZM68.8387 38.8538C67.0444 38.8538 65.7441 39.0175 65.7441 41.2289C65.7441 42.54 66.2493 43.5518 67.6397 43.5518C69.5465 43.5518 70.056 42.8589 70.056 41.0666V38.8538H68.8387ZM70.056 35.7716C70.056 34.5086 69.2229 34.0443 68.0056 34.0443C66.1382 34.0443 66.0059 34.8543 66.0059 36.2853C66.0059 36.8061 65.481 36.878 65.0616 36.878C64.4691 36.8541 64.289 36.3926 64.3777 35.7053C64.6239 33.659 66.6645 33.2709 68.273 33.2709C70.9116 33.2709 71.8573 34.184 71.8573 36.878V41.8936C71.8573 43.3218 72.0332 43.4121 73.5924 43.5039V44.2391C73.1576 44.2222 72.5215 44.2222 71.8573 44.2024C71.2873 44.2222 70.716 44.2222 70.146 44.2391V43.3218C69.396 44.0359 68.4038 44.4028 67.3948 44.4028C65.1502 44.4028 63.8499 43.6647 63.8499 41.1809C63.8499 37.5978 67.6397 38.0974 70.056 38.0974V35.7716ZM76.3225 34.7823C77.6158 33.707 78.2814 33.2709 80.0208 33.2709C82.8353 33.2709 83.1632 34.7146 83.1632 37.221V41.8725C83.1632 43.1863 83.2547 43.5039 85.0841 43.5039V44.2391C84.1779 44.2222 83.2322 44.2222 82.2626 44.2024C81.2944 44.2222 80.3501 44.2222 79.4692 44.2391V43.5039C81.072 43.3896 81.3662 43.4799 81.3662 41.8725V37.7996C81.3662 35.8874 81.3394 34.2785 79.1216 34.2785C76.8728 34.2785 76.4351 35.6587 76.4351 37.6825V41.8725C76.4351 43.1581 76.4984 43.5039 78.3054 43.5039V44.2391C77.4441 44.2222 76.4984 44.2222 75.5302 44.2024C74.5648 44.2222 73.6164 44.2222 72.6707 44.2391V43.5039C74.3228 43.3896 74.6282 43.5293 74.6282 41.8725V35.814C74.6282 34.3477 74.4762 34.2559 72.6707 34.184V33.4925H76.3225V34.7823ZM87.6496 30.9931V38.0085C88.6178 37.0869 89.9645 35.9833 90.5711 34.74C90.754 34.3928 91.0158 33.9144 90.9468 33.4925H94.6212V34.1148C92.1627 34.0711 91.5477 35.2198 89.2314 37.5978L92.2232 40.9735C94.2074 43.2061 94.5973 43.4785 95.5894 43.4785V44.2391C95.0631 44.2222 94.5128 44.2222 93.9865 44.201C93.456 44.2222 92.9071 44.2222 92.3766 44.2391C90.7934 42.1688 89.3876 40.3525 87.6496 38.7677V41.8936C87.6496 43.2061 87.7368 43.5039 89.6099 43.5039V44.2391C88.6614 44.2222 87.7171 44.2222 86.7447 44.201C85.7807 44.2222 84.8294 44.2222 83.8866 44.2391V43.5039C85.7596 43.4587 85.8455 43.1355 85.8455 41.8936V31.274M85.8455 31.5125V30.5994C85.8455 29.1529 85.6921 29.0597 83.8866 28.9892V28.2539H87.6496V31.5506M110.898 30.8506H110.86L104.893 44.1714C104.784 44.424 104.52 44.424 104.389 44.201L98.4264 31.1018H98.3814V41.8936C98.3814 43.367 98.7782 43.4587 100.404 43.4587V44.2377C99.5522 44.2208 98.6924 44.2208 97.8297 44.201C96.9783 44.2208 96.1157 44.2208 95.2559 44.2377V43.4587C96.8869 43.4587 97.2851 43.367 97.2851 41.8936V30.6163C97.2851 29.1204 96.8179 29.0513 95.2559 29.0513V28.2751C95.9145 28.2948 96.5534 28.2948 97.2134 28.3202C97.8776 28.2948 98.5109 28.2948 99.1765 28.2751L105.163 41.0864L111.033 28.2751C111.691 28.2948 112.353 28.2948 113.017 28.3202C113.676 28.2948 114.331 28.2948 114.993 28.2751V29.0513C113.367 29.0513 112.885 29.0978 112.885 30.6163V41.8936C112.885 43.3881 113.276 43.4587 114.993 43.4587V44.2377C113.957 44.2208 112.924 44.2208 111.893 44.201C110.86 44.2208 109.818 44.2208 108.791 44.2377V43.4587C110.505 43.4587 110.898 43.3881 110.898 41.8936V30.8506ZM122.095 42.9083C121.414 43.8285 119.766 44.4254 118.692 44.4254C116.708 44.4254 115.384 43.803 115.384 41.5253V35.797C115.384 34.4846 115.3 34.184 113.431 34.184V33.4925H117.187V40.313C117.187 42.1237 117.322 43.4601 119.414 43.4601C121.966 43.4601 122.095 41.6664 122.095 39.5241V35.797C122.095 34.5326 122.009 34.184 120.246 34.184V33.4925H123.899V41.895C123.899 43.2061 123.989 43.5039 125.861 43.5039V44.2391C125.177 44.2222 124.538 44.2222 123.878 44.2024C123.287 44.2222 122.688 44.2222 122.095 44.2391V42.9083ZM126.532 40.7223H127.678C127.83 42.1688 127.502 43.6887 129.862 43.6887C131.086 43.6887 132.41 43.0706 132.41 41.5959C132.41 40.1451 131.002 39.8459 129.59 39.455C128.184 39.0613 126.774 38.5772 126.774 36.7214C126.774 34.1402 128.584 33.2709 130.798 33.2709C131.727 33.2709 132.717 33.429 133.55 33.841V36.6057H132.387C132.235 34.9263 132.387 34.0443 130.474 34.0443C128.754 34.1148 128.405 34.7612 128.405 36.0934C128.405 36.6706 128.884 37.3155 129.7 37.5978C131.549 38.2145 134.037 38.3528 134.037 40.9989C134.037 44.0105 131.393 44.4254 129.108 44.4254C128.208 44.4254 127.281 44.2208 126.532 43.7805V40.7223ZM143.291 40.8366V43.5293C141.949 44.2391 140.739 44.4254 139.241 44.4254C135.46 44.4254 134.454 42.516 134.454 38.7917C134.454 35.1521 135.705 33.2709 139.352 33.2709C140.43 33.2709 142.481 33.4727 143.291 34.3251V36.7581H142.152C141.995 35.6587 142.284 34.0062 139.635 34.0062C136.696 34.0062 136.406 36.2557 136.406 38.7917C136.406 41.3178 136.67 43.6887 139.665 43.6887C142.108 43.6887 141.976 42.5597 142.194 40.8366H143.291ZM148.815 38.8538C147.012 38.8538 145.71 39.0175 145.71 41.2289C145.71 42.54 146.213 43.5518 147.606 43.5518C149.517 43.5518 150.022 42.8589 150.022 41.0666V38.8538H148.815ZM150.022 35.7716C150.022 34.5086 149.189 34.0443 147.976 34.0443C146.109 34.0443 145.976 34.8543 145.976 36.2853C145.976 36.8061 145.45 36.878 145.031 36.878C144.434 36.8541 144.262 36.3926 144.352 35.7053C144.59 33.659 146.638 33.2709 148.244 33.2709C150.881 33.2709 151.826 34.184 151.826 36.878V41.8936C151.826 43.3218 152.007 43.4121 153.569 43.5039V44.2391C153.128 44.2222 152.488 44.2222 151.826 44.2024C151.258 44.2222 150.685 44.2222 150.112 44.2391V43.3218C149.365 44.0359 148.377 44.4028 147.364 44.4028C145.122 44.4028 143.819 43.6647 143.819 41.1809C143.819 37.5978 147.606 38.0974 150.022 38.0974V35.7716ZM155.635 34.3688V40.9989C155.635 42.0983 155.698 43.5279 157.085 43.5279C157.461 43.5279 157.789 43.4347 158.144 43.295L158.515 43.1158L158.781 43.7565C158.118 44.1036 157.016 44.424 156.185 44.424C153.922 44.424 153.832 42.7686 153.832 40.8874V34.3688H152.114V33.4911H153.832V30.3919L155.635 29.5847V33.4911H158.118V34.3688H155.635Z" fill="#848484"/>
<path d="M156.231 19.0502C157.15 19.0502 158.064 18.0849 158.064 17.1309C158.064 16.39 158.064 8.33742 158.064 8.33742H154.404V8.97813C155.316 8.97813 156.231 8.97813 156.231 10.2595C156.231 11.1006 156.231 16.6483 156.231 17.1309C156.231 17.6065 156.231 18.0849 154.704 18.0849C153.828 18.0849 149.514 18.0849 149.514 18.0849V11.3758L147.677 12.0137V17.1309C147.677 17.6065 147.677 18.0849 146.152 18.0849H139.736V3.06782H136.067V3.70994C136.067 3.70994 137.902 3.70994 137.902 4.98853C137.902 5.89878 137.902 14.2647 137.902 17.1309C137.902 17.6065 137.902 18.0849 136.067 18.0849H126.902V11.3758L125.064 12.0137C125.064 12.0137 125.064 16.1684 125.064 17.1309C125.064 18.0849 125.984 19.0502 126.902 19.0502C127.856 19.0502 154.404 19.0502 156.231 19.0502ZM148.592 6.09071C147.998 6.09071 147.517 6.59735 147.517 7.2183C147.517 7.84348 147.998 8.35294 148.592 8.35294C149.191 8.35294 149.674 7.84348 149.674 7.2183C149.674 6.59735 149.191 6.09071 148.592 6.09071ZM157.176 21.2969C156.581 21.2969 156.095 21.7993 156.095 22.4259C156.095 23.0497 156.581 23.5549 157.176 23.5549C157.774 23.5549 158.256 23.0497 158.256 22.4259C158.256 21.7993 157.774 21.2969 157.176 21.2969ZM118.954 18.0849C120.783 18.0849 120.783 17.6065 120.783 17.1295V10.2581H118.954C116.145 10.2581 115.285 11.2192 115.285 13.9302C115.285 15.1495 115.285 18.0849 115.285 18.0849C115.285 18.0849 118.037 18.0849 118.954 18.0849ZM51.122 19.0502V15.7719H51.7314C51.7314 17.1295 51.7314 18.0849 53.0049 18.0849C54.2799 18.0849 54.7865 18.0849 54.7865 18.0849C54.7865 18.0849 54.7865 5.98769 54.7865 4.98853C54.7865 3.70852 54.1716 3.70852 52.9557 3.70852V3.06641H56.623V18.0849H67.6208V10.2581C67.6208 10.2581 66.0263 10.2581 63.9943 10.2581C56.623 10.2581 56.623 18.0849 56.623 18.0849C56.623 18.0849 56.623 8.33742 63.9943 8.33742H69.4544V18.0849C69.4544 18.0849 81.0489 18.0849 81.3683 18.0849C83.9704 18.0849 85.0371 16.4126 85.0371 13.6973V10.2581H77.7038V13.6973C77.7038 16.1684 78.7748 18.0849 81.3683 18.0849C80.455 18.0849 76.9355 18.0849 76.9355 13.6973V8.33742H86.8707V13.6973C86.8707 16.0344 85.8153 17.3497 84.6374 18.0906L85.8758 18.0849C85.8758 18.0849 92.3323 18.0849 93.2851 18.0849C95.1201 18.0849 95.1201 17.6065 95.1201 17.1295C95.1201 16.6483 95.1201 15.0507 95.1201 15.0507L96.9538 14.5159V18.0849H98.7846C100.625 18.0849 100.625 17.6065 100.625 17.1295C100.625 16.6483 100.625 13.473 100.625 13.473L102.453 12.955V18.0849H104.287C106.118 18.0849 106.118 17.6065 106.118 17.1295C106.118 16.6483 106.118 11.8966 106.118 11.8966L107.953 11.3744V18.0849H113.455C113.455 18.0849 113.455 15.7719 113.455 13.9302C113.455 10.2581 115.285 8.33742 118.954 8.33742H122.622C122.622 8.33742 122.622 16.4126 122.622 17.1295C122.622 18.0849 121.706 19.0502 120.783 19.0502C118.954 19.0502 51.122 19.0502 51.122 19.0502ZM80.3045 3.09181C79.705 3.09181 79.218 3.60268 79.218 4.22928C79.218 4.8474 79.705 5.35545 80.3045 5.35545C80.8983 5.35545 81.3824 4.8474 81.3824 4.22928C81.3824 3.60268 80.8983 3.09181 80.3045 3.09181ZM83.4652 3.08334C82.8755 3.08334 82.3886 3.59139 82.3886 4.20952C82.3886 4.83611 82.8755 5.33993 83.4652 5.33993C84.0675 5.33993 84.553 4.83611 84.553 4.20952C84.553 3.59139 84.0675 3.08334 83.4652 3.08334ZM132.883 13.0058C128.921 13.0058 128.904 14.8574 128.904 14.8574C128.904 14.8574 128.904 12.2184 131.792 11.8543C131.218 11.5649 130.683 11.2079 130.683 10.0972V8.33601C130.683 8.33601 132.518 8.33601 132.883 8.33601C133.43 8.33601 133.624 8.14408 133.62 7.5697H133.986V9.48759H131.412V10.0972C131.412 11.1825 131.777 11.8543 132.883 11.8543H134.346V13.0058H132.883Z" fill="#848484"/>
</svg>
