<svg xmlns="http://www.w3.org/2000/svg" width="15" height="15" viewBox="0 0 28 28" fill="none">
  <path d="M4.57589 3.71484C4.34856 3.71484 4.13055 3.80515 3.9698 3.9659C3.80906 4.12664 3.71875 4.34466 3.71875 4.57199C3.71875 4.79932 3.80906 5.01733 3.9698 5.17808C4.13055 5.33882 4.34856 5.42913 4.57589 5.42913H4.99761C5.18373 5.42945 5.36469 5.49035 5.51314 5.60261C5.66159 5.71488 5.76947 5.87242 5.82046 6.05141L8.53932 15.5657C8.6931 16.1026 9.01751 16.5749 9.4635 16.9111C9.90949 17.2473 10.4528 17.4291 11.0113 17.4291H18.8439C19.3579 17.4292 19.8602 17.2752 20.2858 16.9871C20.7115 16.6989 21.041 16.2898 21.2319 15.8126L23.7588 9.4937C23.8626 9.23369 23.9012 8.95219 23.8712 8.67381C23.8412 8.39543 23.7434 8.12864 23.5865 7.89677C23.4295 7.6649 23.2182 7.475 22.9709 7.34368C22.7236 7.21235 22.4479 7.14359 22.1679 7.14342H7.91532L7.46789 5.57999C7.31451 5.04303 6.99049 4.57059 6.54482 4.23409C6.09915 3.8976 5.55605 3.71533 4.99761 3.71484H4.57589ZM10.1885 15.0926L8.40561 8.8577H22.1662L19.6393 15.1766C19.5756 15.3355 19.4658 15.4716 19.3241 15.5676C19.1823 15.6635 19.0151 15.7148 18.8439 15.7148H11.0113C10.8252 15.7145 10.6442 15.6536 10.4958 15.5414C10.3473 15.4291 10.2395 15.2716 10.1885 15.0926ZM11.433 24.2863C11.7707 24.2863 12.1051 24.2198 12.4171 24.0905C12.7291 23.9613 13.0125 23.7719 13.2513 23.5331C13.4901 23.2943 13.6795 23.0109 13.8087 22.6989C13.938 22.3869 14.0045 22.0525 14.0045 21.7148C14.0045 21.3772 13.938 21.0428 13.8087 20.7308C13.6795 20.4188 13.4901 20.1353 13.2513 19.8966C13.0125 19.6578 12.7291 19.4684 12.4171 19.3392C12.1051 19.2099 11.7707 19.1434 11.433 19.1434C10.7511 19.1434 10.097 19.4143 9.61476 19.8966C9.13252 20.3788 8.86161 21.0329 8.86161 21.7148C8.86161 22.3968 9.13252 23.0509 9.61476 23.5331C10.097 24.0154 10.7511 24.2863 11.433 24.2863ZM11.433 22.572C11.2057 22.572 10.9877 22.4817 10.8269 22.3209C10.6662 22.1602 10.5759 21.9422 10.5759 21.7148C10.5759 21.4875 10.6662 21.2695 10.8269 21.1088C10.9877 20.948 11.2057 20.8577 11.433 20.8577C11.6604 20.8577 11.8784 20.948 12.0391 21.1088C12.1999 21.2695 12.2902 21.4875 12.2902 21.7148C12.2902 21.9422 12.1999 22.1602 12.0391 22.3209C11.8784 22.4817 11.6604 22.572 11.433 22.572ZM18.2902 24.2863C18.6279 24.2863 18.9622 24.2198 19.2742 24.0905C19.5862 23.9613 19.8697 23.7719 20.1085 23.5331C20.3472 23.2943 20.5366 23.0109 20.6659 22.6989C20.7951 22.3869 20.8616 22.0525 20.8616 21.7148C20.8616 21.3772 20.7951 21.0428 20.6659 20.7308C20.5366 20.4188 20.3472 20.1353 20.1085 19.8966C19.8697 19.6578 19.5862 19.4684 19.2742 19.3392C18.9622 19.2099 18.6279 19.1434 18.2902 19.1434C17.6082 19.1434 16.9541 19.4143 16.4719 19.8966C15.9897 20.3788 15.7188 21.0329 15.7188 21.7148C15.7188 22.3968 15.9897 23.0509 16.4719 23.5331C16.9541 24.0154 17.6082 24.2863 18.2902 24.2863ZM18.2902 22.572C18.0629 22.572 17.8448 22.4817 17.6841 22.3209C17.5233 22.1602 17.433 21.9422 17.433 21.7148C17.433 21.4875 17.5233 21.2695 17.6841 21.1088C17.8448 20.948 18.0629 20.8577 18.2902 20.8577C18.5175 20.8577 18.7355 20.948 18.8963 21.1088C19.057 21.2695 19.1473 21.4875 19.1473 21.7148C19.1473 21.9422 19.057 22.1602 18.8963 22.3209C18.7355 22.4817 18.5175 22.572 18.2902 22.572Z" fill="#202626"/>
</svg>