<svg width="189" height="48" viewBox="0 0 189 48" fill="none" xmlns="http://www.w3.org/2000/svg">
<path d="M48.9176 24C48.9176 37.255 38.1718 48 24.9172 48C11.6622 48 0.917221 37.255 0.917221 24C0.917221 10.745 11.6622 3.8147e-06 24.9172 3.8147e-06C38.1718 3.8147e-06 48.9176 10.745 48.9176 24Z" fill="#4A4A4A"/>
<path d="M72.9181 24C72.9181 37.255 62.1723 48 48.9177 48C35.6623 48 24.9173 37.255 24.9173 24C24.9173 10.745 35.6623 3.8147e-06 48.9177 3.8147e-06C62.1723 3.8147e-06 72.9181 10.745 72.9181 24Z" fill="#848484"/>
<mask id="mask0_1_97" style="mask-type:luminance" maskUnits="userSpaceOnUse" x="0" y="0" width="49" height="48">
<path d="M0.917221 -2.28882e-05H48.9184V48H0.917221V-2.28882e-05Z" fill="white"/>
</mask>
<g mask="url(#mask0_1_97)">
<g opacity="0.740005">
<mask id="mask1_1_97" style="mask-type:luminance" maskUnits="userSpaceOnUse" x="0" y="0" width="49" height="48">
<path d="M0.917088 48H48.9179V-2.28882e-05H0.917088V48Z" fill="white"/>
</mask>
<g mask="url(#mask1_1_97)">
<path d="M48.9175 24C48.9175 37.255 38.1717 48 24.9171 48C11.6621 48 0.917088 37.255 0.917088 24C0.917088 10.745 11.6621 -2.67029e-05 24.9171 -2.67029e-05C38.1717 -2.67029e-05 48.9175 10.745 48.9175 24Z" fill="#4A4A4A"/>
</g>
</g>
</g>
<path d="M23.0629 23.648C23.0629 21.2079 21.4364 19.6791 19.1913 19.6791C16.9467 19.6791 15.3202 21.2079 15.3202 23.648C15.3202 26.0885 16.9467 27.6176 19.1913 27.6176C21.4364 27.6176 23.0629 26.0885 23.0629 23.648ZM27.9435 23.648C27.9435 28.4959 24.4293 32.2382 20.1673 32.2382C17.9876 32.2382 16.3935 31.4888 15.3202 30.2532V38.289H10.4396V15.5148H15.3202V17.044C16.3935 15.8076 17.9876 15.0593 20.1673 15.0593C24.4293 15.0593 27.9435 18.8005 27.9435 23.648Z" fill="#FBF6F2"/>
<path d="M42.5207 23.6489C42.5207 21.2088 40.8942 19.68 38.6495 19.68C36.404 19.68 34.778 21.2088 34.778 23.6489C34.778 26.0894 36.404 27.6185 38.6495 27.6185C40.8942 27.6185 42.5207 26.0894 42.5207 23.6489ZM47.4009 15.5157V31.7824H42.5207V30.2541C41.447 31.4897 39.8532 32.2391 37.6727 32.2391C33.4111 32.2391 29.8973 28.4968 29.8973 23.6489C29.8973 18.8014 33.4111 15.0602 37.6727 15.0602C39.8532 15.0602 41.447 15.8085 42.5207 17.0449V15.5157H47.4009Z" fill="#FBF6F2"/>
<path d="M66.4295 15.5162L60.866 31.2947C59.0437 36.4677 56.1481 38.5177 51.593 38.29V33.7352C53.8708 33.7352 54.944 33.0193 55.6599 31.0355L49.1856 15.5162H54.554L58.1655 25.472L61.2234 15.5162H66.4295Z" fill="#FBF6F2"/>
<path d="M55.8258 11.9377L57.7626 12.0015L57.5982 11.2079L54.492 11.0174C56.4292 13.2714 56.0797 16.2553 56.0797 16.2553C57.2228 14.0969 55.8258 11.9377 55.8258 11.9377Z" fill="#FBF6F2"/>
<path d="M56.614 16.8588C59.7569 13.621 58.8043 10.1293 58.8043 10.1293L61.6614 11.3355V10.0345L57.5924 8.16103C59.0157 13.4628 56.614 16.8588 56.614 16.8588Z" fill="#FBF6F2"/>
<path d="M63.3823 6.95226C62.8107 12.7304 56.4618 17.8727 56.4618 17.8727C63.1922 14.3172 63.7633 10.222 63.7633 10.222L69.2237 16.6673C69.0332 20.3173 64.1121 23.6503 64.1121 23.6503C68.906 21.9678 71.3188 16.3803 71.3188 16.3803L63.3823 6.95226Z" fill="#FBF6F2"/>
<path d="M90.3117 18.4528C89.3509 19.466 88.0601 19.9709 86.439 19.9709C85.9213 19.9709 85.4233 19.9394 84.9486 19.8748C84.4723 19.809 84.0512 19.7023 83.6844 19.5518V10.5993C84.0941 10.0829 84.6359 9.60331 85.3056 9.16133C85.9745 8.71976 86.7844 8.5002 87.7359 8.5002C88.4056 8.5002 88.994 8.6388 89.5009 8.91969C90.0096 9.19976 90.4303 9.58737 90.7656 10.0829C91.1004 10.5789 91.349 11.1705 91.5122 11.8598C91.6732 12.55 91.7538 13.2921 91.7538 14.0906C91.7538 15.9861 91.2726 17.4404 90.3117 18.4528ZM92.9522 8.36977C92.4125 7.65589 91.7652 7.10474 91.0084 6.71754C90.2512 6.32789 89.4094 6.13246 88.4816 6.13246C87.2497 6.13246 86.2443 6.37164 85.4671 6.84674C84.6898 7.32184 84.0512 7.89426 83.554 8.56316V6.4575H80.7676V28.69H83.6844V21.9106C84.1379 22.0418 84.6081 22.144 85.0946 22.2221C85.5812 22.2986 86.136 22.3382 86.7632 22.3382C87.8863 22.3382 88.9294 22.1547 89.8906 21.7871C90.851 21.4191 91.6892 20.8843 92.401 20.1827C93.1157 19.4803 93.6714 18.6151 94.0717 17.5893C94.4711 16.5634 94.6702 15.401 94.6702 14.1061C94.6702 12.9392 94.5198 11.8692 94.2176 10.8966C93.9142 9.92509 93.4923 9.08283 92.9522 8.36977Z" fill="#323537"/>
<path d="M107.081 18.1884C106.541 18.7714 105.903 19.2523 105.168 19.6309C104.433 20.0083 103.645 20.198 102.803 20.198C102.026 20.198 101.419 20.0197 100.989 19.6628C100.556 19.3066 100.339 18.7604 100.339 18.0257C100.339 17.616 100.42 17.264 100.583 16.9728C100.745 16.6817 100.972 16.4446 101.264 16.2602C101.555 16.0766 101.9 15.9311 102.301 15.8219C102.7 15.7139 103.127 15.6403 103.58 15.595C104.142 15.5312 104.705 15.4764 105.266 15.4339C105.827 15.3909 106.432 15.3472 107.081 15.3034V18.1884ZM103.97 6.13177C102.953 6.13177 102.019 6.2299 101.166 6.42452C100.313 6.61792 99.4743 6.96504 98.6541 7.46181L99.3353 9.59977C99.9601 9.25387 100.615 8.98484 101.295 8.79063C101.976 8.5956 102.694 8.4991 103.45 8.4991C104.747 8.4991 105.676 8.87158 106.239 9.61694C106.8 10.3611 107.081 11.3931 107.081 12.7108V13.392C106.454 13.392 105.799 13.4018 105.119 13.4247C104.44 13.4464 103.752 13.4787 103.062 13.5212C101.376 13.6308 100.032 14.0515 99.0266 14.7846C98.0224 15.521 97.5208 16.6016 97.5208 18.0257C97.5208 18.6745 97.6332 19.2682 97.8593 19.8083C98.0879 20.348 98.3945 20.8031 98.7846 21.1698C99.1722 21.5378 99.6379 21.824 100.178 22.0293C100.718 22.2337 101.311 22.3372 101.961 22.3372C102.543 22.3372 103.099 22.2721 103.629 22.1421C104.158 22.0125 104.644 21.84 105.088 21.6225C105.529 21.4082 105.925 21.1649 106.27 20.8951C106.615 20.624 106.907 20.348 107.146 20.068V22.0125H109.997V12.6475C109.997 10.5508 109.451 8.94027 108.36 7.81834C107.269 6.69355 105.805 6.13177 103.97 6.13177Z" fill="#323537"/>
<path d="M119.689 19.1933L115.606 6.4575H112.593L118.296 22.1743L115.995 28.69H118.846L126.722 6.4575H123.707L119.689 19.1933Z" fill="#323537"/>
<path d="M142.689 6.65217H138.877L133.437 14.1851V6.65217H130.143V22.3297H133.437V14.6316L139.017 22.3297H143.089L136.923 14.3969L142.689 6.65217Z" fill="#323537"/>
<path d="M155.655 18.5072C155.116 19.0894 154.478 19.5711 153.743 19.9484C153.008 20.3258 152.22 20.5159 151.378 20.5159C150.6 20.5159 149.993 20.3373 149.564 19.9812C149.131 19.6246 148.914 19.0788 148.914 18.3436C148.914 17.934 148.995 17.5823 149.158 17.29C149.319 16.9993 149.546 16.7617 149.838 16.5786C150.13 16.3942 150.474 16.2482 150.876 16.1399C151.275 16.0323 151.702 15.9579 152.155 15.9133C152.717 15.8487 153.279 15.7948 153.841 15.7518C154.402 15.7089 155.006 15.6644 155.655 15.6214V18.5072ZM152.544 6.45057C151.528 6.45057 150.593 6.54787 149.74 6.7429C148.887 6.9363 148.049 7.28302 147.23 7.7802L147.91 9.91774C148.536 9.57266 149.19 9.30281 149.87 9.10819C150.551 8.91357 151.269 8.81749 152.026 8.81749C153.322 8.81749 154.251 9.18915 154.814 9.93451C155.374 10.6791 155.655 11.711 155.655 13.0288V13.7096C155.029 13.7096 154.375 13.7202 153.694 13.7427C153.014 13.7644 152.327 13.7967 151.637 13.8392C149.951 13.9487 148.607 14.3695 147.602 15.1026C146.598 15.8393 146.096 16.9187 146.096 18.3436C146.096 18.9929 146.208 19.587 146.434 20.1263C146.663 20.666 146.97 21.1207 147.359 21.4878C147.747 21.855 148.213 22.1424 148.753 22.3464C149.292 22.5525 149.887 22.6547 150.535 22.6547C151.118 22.6547 151.674 22.5897 152.204 22.4601C152.733 22.3305 153.218 22.158 153.662 21.9408C154.104 21.7254 154.5 21.4833 154.845 21.2127C155.19 20.942 155.481 20.666 155.721 20.3863V22.3305H158.572V12.9654C158.572 10.8684 158.026 9.25906 156.935 8.13591C155.844 7.01194 154.38 6.45057 152.544 6.45057Z" fill="#323537"/>
<path d="M171.127 14.4366C170.576 14.0588 170.018 13.7513 169.458 13.5125C168.896 13.2746 168.475 13.0914 168.193 12.963C167.891 12.8109 167.566 12.6609 167.22 12.5088C166.876 12.3579 166.557 12.1903 166.264 12.0063C165.974 11.8231 165.735 11.617 165.552 11.3909C165.368 11.1648 165.276 10.8884 165.276 10.5642C165.276 9.8724 165.536 9.39771 166.054 9.13808C166.574 8.87804 167.21 8.74966 167.967 8.74966C168.659 8.74966 169.344 8.83102 170.025 8.99212C170.706 9.15403 171.357 9.38585 171.985 9.68841L172.47 7.48504C171.844 7.16162 171.143 6.9069 170.365 6.72291C169.588 6.54138 168.788 6.44815 167.967 6.44815C167.254 6.44815 166.562 6.5287 165.893 6.69102C165.223 6.85334 164.633 7.10847 164.127 7.45315C163.619 7.79864 163.207 8.24103 162.895 8.78155C162.582 9.32084 162.425 9.97053 162.425 10.7257C162.425 11.4179 162.57 12.0116 162.862 12.5088C163.153 13.0059 163.532 13.4426 163.997 13.8208C164.461 14.1994 164.974 14.5241 165.536 14.7935C166.098 15.0646 166.659 15.3066 167.22 15.5233C167.63 15.6955 168.025 15.868 168.403 16.041C168.783 16.2135 169.111 16.404 169.393 16.6081C169.673 16.8133 169.9 17.0509 170.074 17.3219C170.247 17.591 170.332 17.8997 170.332 18.2443C170.332 18.9791 170.014 19.5147 169.376 19.8491C168.739 20.1852 167.956 20.3508 167.027 20.3508C166.141 20.3508 165.337 20.2539 164.613 20.0597C163.888 19.8639 163.245 19.6492 162.685 19.4116L162.199 21.7123C162.479 21.8419 162.82 21.9675 163.218 22.0848C163.619 22.2046 164.034 22.3076 164.466 22.3935C164.898 22.4785 165.331 22.5431 165.763 22.5881C166.195 22.6306 166.604 22.6523 166.995 22.6523C167.879 22.6523 168.701 22.5386 169.458 22.3125C170.213 22.0848 170.867 21.7659 171.418 21.3562C171.97 20.9461 172.402 20.4493 172.715 19.8639C173.027 19.2816 173.185 18.6225 173.185 17.8886C173.185 17.0889 172.979 16.4085 172.568 15.8463C172.158 15.2854 171.678 14.8156 171.127 14.4366Z" fill="#323537"/>
<path d="M185.374 18.5072C184.834 19.0894 184.196 19.5711 183.461 19.9484C182.726 20.3258 181.938 20.5159 181.096 20.5159C180.319 20.5159 179.712 20.3373 179.281 19.9812C178.85 19.6246 178.632 19.0788 178.632 18.3436C178.632 17.934 178.713 17.5823 178.876 17.29C179.038 16.9993 179.264 16.7617 179.557 16.5786C179.849 16.3942 180.194 16.2482 180.594 16.1399C180.993 16.0323 181.421 15.9579 181.873 15.9133C182.435 15.8487 182.998 15.7948 183.56 15.7518C184.121 15.7089 184.725 15.6644 185.374 15.6214V18.5072ZM186.653 8.13591C185.563 7.01194 184.097 6.45057 182.263 6.45057C181.246 6.45057 180.312 6.54787 179.459 6.7429C178.605 6.9363 177.768 7.28302 176.948 7.7802L177.628 9.91774C178.254 9.57266 178.908 9.30281 179.589 9.10819C180.27 8.91357 180.987 8.81749 181.743 8.81749C183.04 8.81749 183.969 9.18915 184.531 9.93451C185.092 10.6791 185.374 11.711 185.374 13.0288V13.7096C184.748 13.7096 184.093 13.7202 183.412 13.7427C182.733 13.7644 182.046 13.7967 181.355 13.8392C179.669 13.9487 178.325 14.3695 177.32 15.1026C176.316 15.8393 175.814 16.9187 175.814 18.3436C175.814 18.9929 175.927 19.587 176.153 20.1263C176.381 20.666 176.688 21.1207 177.077 21.4878C177.465 21.855 177.931 22.1424 178.47 22.3464C179.011 22.5525 179.605 22.6547 180.253 22.6547C180.836 22.6547 181.392 22.5897 181.922 22.4601C182.451 22.3305 182.938 22.158 183.381 21.9408C183.822 21.7254 184.219 21.4833 184.564 21.2127C184.908 20.942 185.2 20.666 185.438 20.3863V22.3305H188.291V12.9654C188.291 10.8684 187.745 9.25906 186.653 8.13591Z" fill="#323537"/>
<path d="M81.7842 36.9902H83.9222C85.6525 36.9902 86.5185 36.2416 86.5185 34.7459C86.5185 33.2192 85.6525 32.4551 83.9222 32.4551H81.7842V36.9902ZM86.4723 42.2883L83.5252 37.7993H81.7842V42.2883H80.7007V31.5241H83.999C85.2097 31.5241 86.1133 31.809 86.709 32.379C87.3043 32.9494 87.602 33.7176 87.602 34.6846C87.602 35.5804 87.3505 36.2927 86.846 36.8226C86.3422 37.352 85.6116 37.6669 84.6553 37.7687L87.6935 42.2883H86.4723Z" fill="#373535"/>
<path d="M91.5905 35.0528C91.1424 35.2764 90.7781 35.6195 90.4985 36.0831C90.2192 36.5459 90.0687 37.1237 90.0479 37.8155H95.9417C95.9822 37.1339 95.8706 36.559 95.606 36.0905C95.3419 35.6227 94.9854 35.2764 94.5376 35.0528C94.0887 34.8287 93.6001 34.7167 93.0715 34.7167C92.5322 34.7167 92.0383 34.8287 91.5905 35.0528ZM94.9187 40.9462C95.4282 40.5692 95.7332 40.0601 95.8346 39.4195H96.9655C96.8122 40.3046 96.3894 41.0222 95.6972 41.5713C95.0054 42.1216 94.1304 42.396 93.0715 42.396C92.2778 42.396 91.573 42.2263 90.9568 41.8853C90.3411 41.5439 89.8598 41.05 89.5135 40.4044C89.1676 39.7576 88.9947 38.9967 88.9947 38.1213C88.9947 37.2455 89.1676 36.485 89.5135 35.8386C89.8598 35.193 90.3411 34.6987 90.9568 34.3577C91.573 34.0167 92.2778 33.8462 93.0715 33.8462C93.8855 33.8462 94.5908 34.0167 95.1865 34.3577C95.7818 34.6987 96.234 35.1542 96.5448 35.7241C96.8555 36.2937 97.0109 36.9152 97.0109 37.5865C97.0109 37.8719 96.9904 38.1311 96.9495 38.3654H90.0479C90.0585 39.0674 90.2037 39.6554 90.4833 40.1284C90.7634 40.6027 91.1273 40.9515 91.5754 41.1747C92.0235 41.3988 92.5068 41.5104 93.0261 41.5104C93.7788 41.5104 94.4101 41.3227 94.9187 40.9462Z" fill="#373535"/>
<path d="M103.642 34.5642C104.192 35.043 104.527 35.6894 104.65 36.503H103.627C103.566 35.9633 103.344 35.5189 102.963 35.1677C102.581 34.8164 102.069 34.6406 101.427 34.6406C100.879 34.6406 100.448 34.776 100.138 35.0454C99.8275 35.3144 99.6726 35.6738 99.6726 36.1215C99.6726 36.458 99.7715 36.7271 99.9702 36.9303C100.169 37.1343 100.415 37.2893 100.71 37.3972C101.005 37.5031 101.402 37.6127 101.901 37.7251C102.512 37.8674 103.004 38.0125 103.375 38.1597C103.746 38.3077 104.065 38.5396 104.33 38.8548C104.594 39.1705 104.726 39.5981 104.726 40.137C104.726 40.7981 104.48 41.3407 103.986 41.7627C103.492 42.1854 102.837 42.396 102.024 42.396C101.067 42.396 100.283 42.1597 99.6726 41.6874C99.0613 41.2136 98.7003 40.5643 98.5887 39.74H99.6268C99.6877 40.2899 99.9265 40.738 100.344 41.0835C100.761 41.4303 101.326 41.6032 102.039 41.6032C102.569 41.6032 102.98 41.465 103.276 41.1907C103.57 40.9151 103.718 40.5598 103.718 40.1219C103.718 39.7658 103.616 39.4808 103.412 39.2674C103.209 39.0527 102.957 38.8924 102.657 38.7857C102.357 38.679 101.947 38.5645 101.427 38.4431C100.828 38.3 100.347 38.1565 99.9854 38.0146C99.6235 37.8723 99.316 37.6515 99.0613 37.3502C98.8074 37.0509 98.6798 36.6404 98.6798 36.1215C98.6798 35.4396 98.9297 34.8905 99.4281 34.473C99.9265 34.056 100.604 33.8466 101.458 33.8466C102.365 33.8466 103.092 34.0858 103.642 34.5642Z" fill="#373535"/>
<path d="M119.127 34.7234C119.722 35.3392 120.02 36.2416 120.02 37.4334V42.2883H118.952V37.509C118.952 36.6136 118.735 35.9263 118.302 35.4479C117.87 34.97 117.277 34.7304 116.523 34.7304C115.719 34.7304 115.079 34.9953 114.6 35.524C114.121 36.0539 113.882 36.8328 113.882 37.8607V42.2883H112.829V37.509C112.829 36.6136 112.613 35.9263 112.18 35.4479C111.747 34.97 111.155 34.7304 110.401 34.7304C109.596 34.7304 108.955 34.9953 108.477 35.524C107.999 36.0539 107.759 36.8328 107.759 37.8607V42.2883H106.675V33.9515H107.759V35.9365C107.963 35.2341 108.333 34.703 108.866 34.3403C109.401 33.9801 110.02 33.799 110.722 33.799C111.455 33.799 112.086 33.9928 112.615 34.3788C113.144 34.766 113.511 35.3367 113.714 36.0895C113.939 35.3457 114.331 34.779 114.89 34.3874C115.449 33.9957 116.086 33.799 116.798 33.799C117.756 33.799 118.532 34.1069 119.127 34.7234Z" fill="#373535"/>
<path d="M123.348 42.2887H122.264V33.9519H123.348V42.2887ZM122.242 30.9447C122.389 30.8126 122.58 30.746 122.814 30.746C123.048 30.746 123.236 30.8126 123.379 30.9447C123.521 31.0772 123.593 31.255 123.593 31.4791C123.593 31.6929 123.521 31.8659 123.379 31.9983C123.236 32.1312 123.048 32.1975 122.814 32.1975C122.58 32.1975 122.389 32.1312 122.242 31.9983C122.094 31.8659 122.02 31.6929 122.02 31.4791C122.02 31.255 122.094 31.0772 122.242 30.9447Z" fill="#373535"/>
<path d="M130.723 36.9902H132.861C134.592 36.9902 135.457 36.2416 135.457 34.7459C135.457 33.2192 134.592 32.4551 132.861 32.4551H130.723V36.9902ZM135.411 42.2883L132.465 37.7993H130.723V42.2883H129.64V31.5241H132.938C134.149 31.5241 135.053 31.809 135.649 32.379C136.244 32.9494 136.541 33.7176 136.541 34.6846C136.541 35.5804 136.289 36.2927 135.786 36.8226C135.281 37.352 134.551 37.6669 133.594 37.7687L136.633 42.2883H135.411Z" fill="#373535"/>
<path d="M140.522 35.0528C140.074 35.2764 139.71 35.6195 139.43 36.0831C139.151 36.5459 139 37.1237 138.98 37.8155H144.874C144.914 37.1339 144.802 36.559 144.538 36.0905C144.273 35.6227 143.916 35.2764 143.468 35.0528C143.021 34.8287 142.532 34.7167 142.003 34.7167C141.463 34.7167 140.97 34.8287 140.522 35.0528ZM143.85 40.9462C144.359 40.5692 144.665 40.0601 144.767 39.4195H145.897C145.744 40.3046 145.321 41.0222 144.629 41.5713C143.937 42.1216 143.061 42.396 142.003 42.396C141.209 42.396 140.504 42.2263 139.889 41.8853C139.272 41.5439 138.791 41.05 138.446 40.4044C138.099 39.7576 137.926 38.9967 137.926 38.1213C137.926 37.2455 138.099 36.485 138.446 35.8386C138.791 35.193 139.272 34.6987 139.889 34.3577C140.504 34.0167 141.209 33.8462 142.003 33.8462C142.817 33.8462 143.522 34.0167 144.118 34.3577C144.713 34.6987 145.165 35.1542 145.477 35.7241C145.787 36.2937 145.942 36.9152 145.942 37.5865C145.942 37.8719 145.922 38.1311 145.881 38.3654H138.98C138.99 39.0674 139.135 39.6554 139.415 40.1284C139.696 40.6027 140.058 40.9515 140.507 41.1747C140.955 41.3988 141.438 41.5104 141.957 41.5104C142.711 41.5104 143.342 41.3227 143.85 40.9462Z" fill="#373535"/>
<path d="M152.569 34.5642C153.119 35.043 153.455 35.6894 153.577 36.503H152.555C152.493 35.9633 152.272 35.5189 151.89 35.1677C151.508 34.8164 150.997 34.6406 150.356 34.6406C149.806 34.6406 149.376 34.776 149.065 35.0454C148.755 35.3144 148.599 35.6738 148.599 36.1215C148.599 36.458 148.699 36.7271 148.898 36.9303C149.096 37.1343 149.343 37.2893 149.638 37.3972C149.933 37.5031 150.33 37.6127 150.828 37.7251C151.44 37.8674 151.931 38.0125 152.302 38.1597C152.673 38.3077 152.991 38.5396 153.257 38.8548C153.52 39.1705 153.654 39.5981 153.654 40.137C153.654 40.7981 153.408 41.3407 152.913 41.7627C152.419 42.1854 151.766 42.396 150.951 42.396C149.995 42.396 149.211 42.1597 148.599 41.6874C147.99 41.2136 147.628 40.5643 147.515 39.74H148.555C148.615 40.2899 148.854 40.738 149.272 41.0835C149.689 41.4303 150.254 41.6032 150.967 41.6032C151.495 41.6032 151.908 41.465 152.203 41.1907C152.498 40.9151 152.646 40.5598 152.646 40.1219C152.646 39.7658 152.544 39.4808 152.341 39.2674C152.137 39.0527 151.885 38.8924 151.585 38.7857C151.285 38.679 150.875 38.5645 150.356 38.4431C149.755 38.3 149.274 38.1565 148.913 38.0146C148.551 37.8723 148.244 37.6515 147.99 37.3502C147.734 37.0509 147.607 36.6404 147.607 36.1215C147.607 35.4396 147.857 34.8905 148.355 34.473C148.854 34.056 149.531 33.8466 150.386 33.8466C151.292 33.8466 152.02 34.0858 152.569 34.5642Z" fill="#373535"/>
<path d="M157.806 35.0528C157.357 35.2764 156.994 35.6195 156.713 36.0831C156.435 36.5459 156.285 37.1237 156.264 37.8155H162.158C162.197 37.1339 162.085 36.559 161.821 36.0905C161.557 35.6227 161.201 35.2764 160.753 35.0528C160.305 34.8287 159.815 34.7167 159.287 34.7167C158.748 34.7167 158.254 34.8287 157.806 35.0528ZM161.134 40.9462C161.643 40.5692 161.949 40.0601 162.051 39.4195H163.18C163.028 40.3046 162.605 41.0222 161.913 41.5713C161.221 42.1216 160.346 42.396 159.287 42.396C158.493 42.396 157.788 42.2263 157.172 41.8853C156.556 41.5439 156.075 41.05 155.73 40.4044C155.383 39.7576 155.21 38.9967 155.21 38.1213C155.21 37.2455 155.383 36.485 155.73 35.8386C156.075 35.193 156.556 34.6987 157.172 34.3577C157.788 34.0167 158.493 33.8462 159.287 33.8462C160.101 33.8462 160.805 34.0167 161.401 34.3577C161.997 34.6987 162.449 35.1542 162.76 35.7241C163.07 36.2937 163.227 36.9152 163.227 37.5865C163.227 37.8719 163.205 38.1311 163.164 38.3654H156.264C156.273 39.0674 156.419 39.6554 156.699 40.1284C156.979 40.6027 157.342 40.9515 157.79 41.1747C158.239 41.3988 158.721 41.5104 159.242 41.5104C159.994 41.5104 160.625 41.3227 161.134 40.9462Z" fill="#373535"/>
<path d="M166.235 42.2887H165.152V30.9901H166.235V42.2887Z" fill="#373535"/>
<path d="M169.64 42.2887H168.556V30.9901H169.64V42.2887Z" fill="#373535"/>
<path d="M174.161 35.0528C173.712 35.2764 173.35 35.6195 173.069 36.0831C172.789 36.5459 172.639 37.1237 172.619 37.8155H178.512C178.552 37.1339 178.441 36.559 178.177 36.0905C177.912 35.6227 177.556 35.2764 177.107 35.0528C176.659 34.8287 176.171 34.7167 175.642 34.7167C175.102 34.7167 174.609 34.8287 174.161 35.0528ZM177.489 40.9462C177.998 40.5692 178.304 40.0601 178.406 39.4195H179.535C179.383 40.3046 178.96 41.0222 178.268 41.5713C177.576 42.1216 176.7 42.396 175.642 42.396C174.848 42.396 174.142 42.2263 173.527 41.8853C172.911 41.5439 172.43 41.05 172.084 40.4044C171.737 39.7576 171.564 38.9967 171.564 38.1213C171.564 37.2455 171.737 36.485 172.084 35.8386C172.43 35.193 172.911 34.6987 173.527 34.3577C174.142 34.0167 174.848 33.8462 175.642 33.8462C176.456 33.8462 177.161 34.0167 177.756 34.3577C178.352 34.6987 178.805 35.1542 179.115 35.7241C179.426 36.2937 179.581 36.9152 179.581 37.5865C179.581 37.8719 179.559 38.1311 179.52 38.3654H172.619C172.628 39.0674 172.774 39.6554 173.054 40.1284C173.334 40.6027 173.697 40.9515 174.145 41.1747C174.593 41.3988 175.077 41.5104 175.596 41.5104C176.349 41.5104 176.98 41.3227 177.489 40.9462Z" fill="#373535"/>
<path d="M183.767 34.2872C184.306 33.9625 184.963 33.7994 185.736 33.7994V34.9602H185.385C184.581 34.9602 183.913 35.1761 183.384 35.6086C182.855 36.0416 182.59 36.7465 182.59 37.7233V42.2883H181.506V33.9519H182.59V35.6765C182.834 35.0767 183.227 34.6139 183.767 34.2872Z" fill="#373535"/>
<path d="M188.238 42.2887H187.154V33.9519H188.238V42.2887ZM187.131 30.9447C187.278 30.8126 187.469 30.746 187.703 30.746C187.938 30.746 188.125 30.8126 188.269 30.9447C188.41 31.0772 188.482 31.255 188.482 31.4791C188.482 31.6929 188.41 31.8659 188.269 31.9983C188.125 32.1312 187.938 32.1975 187.703 32.1975C187.469 32.1975 187.278 32.1312 187.131 31.9983C186.983 31.8659 186.91 31.6929 186.91 31.4791C186.91 31.255 186.983 31.0772 187.131 30.9447Z" fill="#373535"/>
</svg>
