<svg width="24" height="24" viewBox="0 0 24 24" fill="none" xmlns="http://www.w3.org/2000/svg">
<g clip-path="url(#clip0_1_50)">
<path d="M11.5556 0.375C5.17344 0.375 0 5.57953 0 12C0 18.4205 5.17344 23.625 11.5556 23.625C17.9377 23.625 23.1111 18.4205 23.1111 12C23.1111 5.57953 17.9377 0.375 11.5556 0.375ZM19.0108 10.4766V10.8014C19.0108 11.0766 18.8561 11.3283 18.6114 11.4511L17.8943 11.812C17.7805 11.8694 17.6535 11.8954 17.5264 11.8874C17.3993 11.8794 17.2766 11.8377 17.1707 11.7666L16.3222 11.1975C16.2307 11.1362 16.1265 11.0967 16.0175 11.0819C15.9085 11.0672 15.7975 11.0777 15.6932 11.1127L15.5697 11.1539C15.1177 11.3053 14.9332 11.8472 15.1974 12.2461L15.8143 13.177C15.9481 13.3791 16.1736 13.5005 16.4149 13.5005H16.7975C17.1963 13.5005 17.5197 13.8258 17.5197 14.227V14.7586C17.5197 14.9156 17.4689 15.0689 17.3753 15.1945L16.5021 16.3655C16.4359 16.4545 16.3907 16.5577 16.3702 16.6669L16.1699 17.737C16.141 17.8913 16.0632 18.0319 15.9481 18.1383C15.5065 18.5451 15.1154 19.004 14.7832 19.5052L14.1761 20.4216C14.058 20.5998 13.898 20.7459 13.7103 20.8469C13.5226 20.948 13.3131 21.0009 13.1002 21.0009C12.6105 21.0009 12.1627 20.7225 11.9437 20.2819C11.6884 19.7683 11.5555 19.2019 11.5556 18.6277V17.2266C11.5556 16.8253 11.2322 16.5 10.8333 16.5H9.62745C8.95229 16.5 8.30509 16.23 7.82749 15.75C7.35025 15.2697 7.0821 14.6184 7.08197 13.9392V13.2802C7.08197 12.4744 7.45939 11.7155 8.10007 11.2317L9.38516 10.2619C9.82583 9.92944 10.3617 9.74968 10.9125 9.74953H10.954C11.3491 9.74953 11.7391 9.84188 12.0923 10.02L12.7782 10.365C12.9497 10.4513 13.1477 10.4653 13.3294 10.4044L15.5338 9.66516C15.8288 9.56625 16.0277 9.28875 16.0277 8.97609C16.0277 8.57484 15.7044 8.24953 15.3055 8.24953H14.8354C14.6439 8.24953 14.4603 8.17312 14.3247 8.03672L14.0023 7.71234C13.9352 7.64486 13.8556 7.59133 13.768 7.55482C13.6803 7.5183 13.5864 7.49952 13.4916 7.49953H9.2957C8.89685 7.49953 8.57348 7.17422 8.57348 6.77297V6.56672C8.57348 6.23344 8.799 5.94281 9.1205 5.86172L9.7938 5.6925C9.96806 5.64844 10.12 5.54109 10.2197 5.39062L10.5962 4.82297C10.7299 4.62094 10.9554 4.49953 11.1968 4.49953H12.3248C12.7237 4.49953 13.0471 4.17422 13.0471 3.77297V2.75578C16.7383 3.35766 19.7032 6.14156 20.5917 9.75H19.733C19.3341 9.75 19.0108 10.0753 19.0108 10.4766Z" fill="#213030"/>
</g>
<defs>
<clipPath id="clip0_1_50">
<rect width="23.1111" height="24" fill="white"/>
</clipPath>
</defs>
</svg>
