<svg width="20" height="20" viewBox="0 0 24 24" fill="none" xmlns="http://www.w3.org/2000/svg">
<g clip-path="url(#clip0_1_33)">
<path d="M21.44 10.7194L5.96005 2.97942C5.75121 2.88267 5.5215 2.83968 5.29181 2.85438C5.06212 2.86907 4.83975 2.94098 4.64495 3.06356C4.45015 3.18614 4.2891 3.3555 4.17647 3.55621C4.06383 3.75692 4.00318 3.98262 4.00005 4.21276V19.6861C3.9981 19.9223 4.05712 20.1551 4.17141 20.3618C4.28571 20.5686 4.4514 20.7424 4.65249 20.8664C4.85357 20.9904 5.08324 21.0604 5.31931 21.0697C5.55537 21.079 5.78984 21.0272 6.00005 20.9194L21.44 13.1794C21.6688 13.0646 21.861 12.8885 21.9954 12.6707C22.1298 12.4529 22.2009 12.202 22.2009 11.9461C22.2009 11.6902 22.1298 11.4393 21.9954 11.2215C21.861 11.0037 21.6688 10.8276 21.44 10.7128V10.7194Z" fill="#FF8811"/>
</g>
<defs>
<clipPath id="clip0_1_33">
<rect width="24" height="24" fill="white"/>
</clipPath>
</defs>
</svg>
